<svg xmlns="http://www.w3.org/2000/svg" width="32" height="32" viewBox="-30 -30 60 60">
  <rect x="-30" y="-30" width="60" height="60" fill="#060a10"/>
  <circle r="28" fill="none" stroke="#00D2FF" stroke-width="1" opacity=".2"/>
  <circle r="22" fill="none" stroke="#00D2FF" stroke-width="1" opacity=".38"/>
  <circle r="15" fill="#0c1628"/>
  <circle r="15" fill="none" stroke="#00D2FF" stroke-width="1.2"/>
  <line x1="0" y1="-12" x2="0" y2="-15" stroke="#00D2FF" stroke-width="1.8" opacity=".9"/>
  <line x1="0" y1="12" x2="0" y2="15" stroke="#00D2FF" stroke-width="1.8" opacity=".9"/>
  <line x1="-12" y1="0" x2="-15" y2="0" stroke="#00D2FF" stroke-width="1.8" opacity=".9"/>
  <line x1="12" y1="0" x2="15" y2="0" stroke="#00D2FF" stroke-width="1.8" opacity=".9"/>
  <line x1="8" y1="-8" x2="10" y2="-10" stroke="#00D2FF" stroke-width="1.2" opacity=".6"/>
  <line x1="-8" y1="-8" x2="-10" y2="-10" stroke="#00D2FF" stroke-width="1.2" opacity=".6"/>
  <line x1="8" y1="8" x2="10" y2="10" stroke="#00D2FF" stroke-width="1.2" opacity=".6"/>
  <line x1="-8" y1="8" x2="-10" y2="10" stroke="#00D2FF" stroke-width="1.2" opacity=".6"/>
  <path d="M0,-13 L2.5,-3 L0,-1.5 L-2.5,-3Z" fill="#00D2FF"/>
  <path d="M0,-13 L1.5,-9 L0,-8 L-1.5,-9Z" fill="#EF9F27"/>
  <path d="M0,13 L2,3 L0,1.5 L-2,3Z" fill="#0c1628" stroke="#00D2FF" stroke-width=".5"/>
  <path d="M13,0 L3,2.5 L1.5,0 L3,-2.5Z" fill="#00D2FF" opacity=".45"/>
  <path d="M-13,0 L-3,2 L-1.5,0 L-3,-2Z" fill="#0c1628" stroke="#00D2FF" stroke-width=".4"/>
  <circle r="1.8" fill="#00D2FF"/>
  <circle r=".8" fill="#0c1628"/>
</svg>
